<?xml version="1.0" encoding="UTF-8"?>
<svg id="Layer_1" xmlns="http://www.w3.org/2000/svg" version="1.1" viewBox="0 0 841.89 595.28">
  <!-- Generator: Adobe Illustrator 29.6.1, SVG Export Plug-In . SVG Version: 2.1.1 Build 9)  -->
  <defs>
    <style>
      .st0 {
        fill: #fff;
      }
    </style>
  </defs>
  <g>
    <path class="st0" d="M397.48,342.94l12.31-30.85h6.58l12.31,30.85h-6.76l-3.29-8.23h-13.08l-3.29,8.23h-4.79ZM407.18,330.6h9.83l-4.92-12.3-4.92,12.3Z"/>
    <path class="st0" d="M431.49,342.94v-4.38l15.73-22.24h-14.83v-4.23h22.49v4.23l-15.73,22.24h15.73v4.38h-23.38Z"/>
    <path class="st0" d="M461.39,342.94v-30.85h6.58v12.53h13.08v-12.53h6.58v30.85h-6.58v-14.07h-13.08v14.07h-6.58Z"/>
    <path class="st0" d="M492.09,342.94l12.31-30.85h6.58l12.31,30.85h-6.76l-3.29-8.23h-13.08l-3.29,8.23h-4.79ZM501.79,330.6h9.83l-4.92-12.3-4.92,12.3Z"/>
    <path class="st0" d="M527.78,342.94v-30.85h11.84c6.43,0,9.64,2.55,9.64,7.65,0,1.9-.54,3.64-1.64,5.2-1.09,1.56-2.59,2.76-4.5,3.6l10.34,14.4h-8.01l-7.84-12.61h-3.63v12.61h-6.2ZM533.98,326.1h1.52c4.77,0,7.16-1.88,7.16-5.65,0-2.75-2.13-4.13-6.39-4.13h-2.29v9.78Z"/>
  </g>
  <g>
    <path class="st0" d="M340.64,292.6v32.47s6.1,0,6.1,0v-34.65s-.87-5.88-10.9-4.58c0,0,3.92.22,4.79,6.76"/>
    <path class="st0" d="M335.85,289.76s-5.34-7.52-12.86,0v35.3h12.86v-35.3Z"/>
    <path class="st0" d="M379.43,327.47h-5.01v-5.01h-8.5v10.67c0,.43-.09.87-.32,1.24-3.58,5.81-13.41,3.56-13.41,3.56,4.68-.78,7.21-3.91,8.27-5.62.41-.66.61-1.41.61-2.18v-7.68h-8.88v6.75s-42.5,0-42.5,0c0,0,1.31,11.77-15.04,8.06,0,0,8.36-.86,9.56-8.32.02-.12.03-.24.03-.36l.11-6.14h-15.36v13.07c0,4.09,3.32,7.41,7.41,7.41h84.98c4.09,0,7.41-3.32,7.41-7.41v-13.07s-9.37,0-9.37,0v5.01Z"/>
    <path class="st0" d="M381.39,251.84h-84.99c-4.09,0-7.41,3.32-7.41,7.41v57.53h14.82s0-23.1,0-23.1h5.88v31.38s8.06,0,8.06,0v-35.09c4.58-7.63,16.72-5.23,16.72-5.23,18.24-.65,17.71,5.88,17.71,5.88v26.15h8.88v-16.72l4.85-4.85v21.57h8.5s0-44.02,0-44.02h5.01v44.02h9.37v-57.53c0-4.09-3.32-7.41-7.41-7.41ZM363.68,289.52c-1.41,0-2.54-1.06-2.54-2.38,0-1.31,1.14-2.37,2.54-2.37s2.54,1.06,2.54,2.37-1.14,2.38-2.54,2.38ZM379.13,268.93c-.49.71-1.27,1.09-2.28,1.09s-1.97-.4-2.01-.41c-.12-.05-.19-.18-.17-.31.02-.13.13-.23.26-.23,1.24-.06,1.68-.53,1.83-.8.14-.26.11-.5.04-.62-.15-.26-.53-.51-.94-.77-.74-.47-1.57-1.01-1.57-1.97,0-1.3,1.03-2.33,2.93-2.33.62,0,.82.03,1.09.08.13.02.24.14.24.28,0,.14-.08.18-.23.28-.15.1-1.28.58-1.35,1.68-.02.38,1.2,1.18,1.6,1.44l.29.19c.45.31.67.75.65,1.28-.03.53-.29.97-.4,1.13Z"/>
  </g>
  <g>
    <path class="st0" d="M415.31,291.34c-.48,0-1.14-.11-1.98-.33s-1.58-.7-2.2-1.43c-.04,2.49-.33,4.58-.89,6.25-.55,1.67-1.39,3.02-2.49,4.04-1.11,1.03-2.51,1.76-4.2,2.2-1.69.44-3.71.68-6.06.72v-6.71c1.5-.04,2.7-.2,3.58-.49.88-.29,1.54-.76,1.98-1.4.44-.64.72-1.45.85-2.42.13-.97.19-2.14.19-3.49v-16.4h7.16v9.36c0,.73.12,1.34.36,1.82.24.48.55.86.94,1.16.38.29.82.5,1.32.63.5.13.98.19,1.46.19.29,0,.57.03.83.08.26.05,73.05.18,73.25.39.2.2.36.5.47.91.11.4.17.95.17,1.65,0,1.25-.18,2.11-.52,2.59-.35.48-73.45.72-74.19.72Z"/>
    <path class="st0" d="M494.42,285.01c-.52-1.36-.77-2.77-.77-4.24,0-1.72.31-3.37.94-4.93s1.5-2.82,2.64-3.77c-.59.04-1.19.06-1.82.08-.62.02-1.25.06-1.87.14v-5.01c1.06-.15,2.12-.26,3.16-.33s2.08-.11,3.11-.11c6.82,0,12.08,1.66,15.77,4.98,3.69,3.32,5.53,8.12,5.53,14.39v5.12h-105.86c-.29,0-.57-.03-.82-.08s-.49-.18-.69-.39-.36-.5-.47-.91c-.11-.4-.16-.95-.16-1.65,0-1.25.17-2.11.52-2.59.35-.48.89-.72,1.62-.72h79.17ZM501.52,284.74c.4,0,.74-.17,1.02-.52.28-.35.49-.77.63-1.27.15-.49.25-1.02.3-1.57.05-.55.08-1.03.08-1.43,0-.55-.04-1.12-.11-1.71-.07-.59-.2-1.13-.38-1.62-.18-.5-.41-.91-.69-1.24-.28-.33-.63-.5-1.07-.5-.37,0-.69.16-.96.47-.28.31-.5.72-.69,1.21-.18.5-.32,1.05-.41,1.65s-.14,1.22-.14,1.84c0,.44.04.94.11,1.49s.2,1.06.39,1.54c.18.48.43.87.74,1.18.31.31.71.47,1.18.47ZM509.17,279.95c0,1.1-.08,2.06-.25,2.89s-.38,1.55-.63,2.17h5.94c0-3.34-.63-5.94-1.89-7.79-1.26-1.85-3.11-3.18-5.54-3.99.85,1.06,1.45,2.23,1.82,3.49.37,1.27.55,2.34.55,3.22Z"/>
    <path class="st0" d="M530.97,271.86h7.15v16.4c0,2.64-.2,4.88-.61,6.71-.4,1.83-1.11,3.33-2.12,4.49s-2.4,1.99-4.18,2.5c-1.78.51-4.04.79-6.8.83v-6.71c1.51-.04,2.69-.2,3.55-.49.86-.29,1.51-.76,1.95-1.4s.72-1.45.85-2.42c.13-.97.19-2.14.19-3.49v-16.4ZM530.42,259.91c0-1.06.38-1.98,1.16-2.75.77-.77,1.69-1.16,2.75-1.16s1.98.39,2.75,1.16c.77.77,1.15,1.69,1.15,2.75s-.38,1.98-1.15,2.75-1.69,1.16-2.75,1.16-1.98-.39-2.75-1.16c-.77-.77-1.16-1.69-1.16-2.75Z"/>
    <path class="st0" d="M553.48,262.89h-10.73v-3.85h2.26c-.18-.26-.31-.62-.39-1.1-.07-.48-.11-.86-.11-1.16,0-.84.14-1.59.41-2.23.28-.64.65-1.17,1.13-1.6.48-.42,1.02-.74,1.62-.96s1.22-.33,1.84-.33c.58,0,1.12.06,1.6.16.48.11.9.24,1.27.39v3.63c-.95-.22-1.63-.33-2.04-.33-.7,0-1.2.16-1.51.5-.31.33-.47.73-.47,1.21,0,.51.15.94.46,1.29.31.35.9.52,1.77.52h2.89v3.85ZM551.88,266.19v25.15h-7.15v-25.15h7.15Z"/>
  </g>
</svg>