<svg width="254" height="64" viewBox="0 0 254 64" fill="none" xmlns="http://www.w3.org/2000/svg">
<g clip-path="url(#clip0_3_92)">
<path fill-rule="evenodd" clip-rule="evenodd" d="M59.6653 15.3548C59.3403 15.3747 59.1238 15.5468 59.0153 15.871C58.9719 25.1626 58.8419 34.4529 58.6254 43.7419C58.2494 43.5688 58.0763 43.2676 58.1054 42.8387C58.2206 42.3677 58.3074 41.8947 58.3654 41.4194C58.1054 41.4194 57.8454 41.4194 57.5855 41.4194C57.7066 31.3497 57.62 24.8981 57.3255 22.0645C56.6248 22.3448 55.9317 22.2588 55.2456 21.8065C54.9256 21.5094 54.9256 21.2085 55.2456 20.9032C54.2057 20.7311 53.1658 20.7311 52.1259 20.9032C53.0397 21.6021 54.0796 22.032 55.2456 22.1936C55.8405 22.9014 56.4039 23.6328 56.9355 24.3871C57.0221 24.215 57.1089 24.0431 57.1955 23.871C57.3229 24.2046 57.3663 24.5489 57.3255 24.9032C57.0655 24.9032 56.8055 24.9032 56.5455 24.9032C56.2494 25.6581 56.1194 26.4323 56.1556 27.2258C56.4441 27.6225 56.8341 27.7943 57.3255 27.7419C57.4121 32.3043 57.3255 36.8635 57.0655 41.4194C56.8406 37.2916 56.6675 33.1626 56.5455 29.0323C56.199 29.0323 55.8522 29.0323 55.5056 29.0323C55.4191 30.4085 55.3322 31.785 55.2456 33.1613C54.8123 33.1613 54.3791 33.1613 53.9457 33.1613C54.0965 32.0906 53.9234 31.1443 53.4258 30.3226C54.0716 29.9448 54.0716 29.5146 53.4258 29.0323C53.2524 29.4625 53.0792 29.8924 52.9058 30.3226C51.7104 31.0268 50.7571 31.9729 50.0461 33.1613C50.0921 36.5151 50.0052 39.8699 49.7861 43.2258C49.4645 43.4274 49.2045 43.6854 49.0061 44C47.6303 44.2568 46.2439 44.3427 44.8465 44.2581C44.8465 43.5698 44.8465 42.8818 44.8465 42.1936C46.2329 42.1936 47.6197 42.1936 49.0061 42.1936C49.0061 41.9355 49.0061 41.6774 49.0061 41.4194C47.6197 41.4194 46.2329 41.4194 44.8465 41.4194C44.8899 36.5154 44.8465 31.6121 44.7165 26.7097C44.5134 26.3925 44.3834 26.0485 44.3265 25.6774C44.8171 24.7948 44.9471 23.8485 44.7165 22.8387C44.4536 23.0547 44.1502 23.1406 43.8065 23.0968C43.8138 22.5595 43.6404 22.0862 43.2866 21.6774C43.5042 21.4165 43.5908 21.1154 43.5466 20.7742C42.7279 20.6996 41.948 20.8286 41.2067 21.1613C41.4667 21.4194 41.7267 21.6774 41.9867 21.9355C41.7691 22.1964 41.6825 22.4976 41.7267 22.8387C42.5321 22.8163 42.619 22.9453 41.9867 23.2258C41.5013 23.4093 41.1113 23.2803 40.8168 22.8387C40.7159 23.0782 40.5425 23.2503 40.2968 23.3548C39.9095 23.144 39.5195 22.929 39.1269 22.7097C36.8755 22.5806 34.6222 22.5378 32.3674 22.5806C32.2897 22.0377 32.3763 21.5216 32.6274 21.0323C33.8132 21.7533 34.9397 21.7102 36.0072 20.9032C33.9273 20.7311 31.8475 20.7311 29.7677 20.9032C29.6312 21.0818 29.4578 21.2108 29.2477 21.2903C28.0762 20.8041 26.8629 20.6751 25.608 20.9032C26.4189 21.2658 27.2854 21.3948 28.2078 21.2903C28.2078 21.7205 28.2078 22.1505 28.2078 22.5806C27.5776 22.6601 26.9711 22.5739 26.3879 22.3226C26.0913 22.0839 26.0913 21.8686 26.3879 21.6774C25.6072 21.3394 24.8273 21.2965 24.0481 21.5484C22.8904 22.0542 21.7637 22.6134 20.6684 23.2258C22.5017 23.4354 22.5883 23.7363 20.9283 24.129C21.0149 24.3012 21.1018 24.473 21.1883 24.6452C20.8366 24.9094 20.6632 25.2534 20.6684 25.6774C20.4084 25.6774 20.1484 25.6774 19.8884 25.6774C19.8884 34.1076 19.8884 42.5375 19.8884 50.9677C18.0686 50.9677 16.2487 50.9677 14.4289 50.9677C14.4289 43.7419 14.4289 36.5161 14.4289 29.2903C12.9184 29.0348 11.3585 28.9489 9.74923 29.0323C9.82678 34.2883 9.7401 39.5355 9.48925 44.7742C8.75743 44.6126 8.10749 44.2684 7.5394 43.7419C6.52322 44.0764 5.43996 44.2485 4.28966 44.2581C3.0304 44.1538 1.81718 44.1538 0.649946 44.2581C0.346654 30.9257 0.303316 17.5923 0.519957 4.25807C0.692063 3.66116 0.822053 3.0591 0.909926 2.45162C1.77308 1.3342 2.89965 0.602842 4.28966 0.258068C24.7415 0.0859388 45.193 0.0859388 65.6448 0.258068C67.571 0.879487 68.9143 2.12697 69.6745 4C69.8045 17.7631 69.8479 31.5267 69.8045 45.2903C67.6381 45.2903 65.4714 45.2903 63.305 45.2903C63.305 35.1399 63.305 24.9892 63.305 14.8387C61.9742 14.6831 60.7611 14.8552 59.6653 15.3548Z" fill="white"/>
<path fill-rule="evenodd" clip-rule="evenodd" d="M143.119 3.99999C144.194 3.7458 145.321 3.65987 146.499 3.74193C146.576 4.3187 146.489 4.83483 146.239 5.29032C146.239 4.86012 146.239 4.43019 146.239 3.99999C145.199 3.99999 144.159 3.99999 143.119 3.99999Z" fill="white"/>
<path fill-rule="evenodd" clip-rule="evenodd" d="M235.671 2.19387C238.412 1.94587 239.582 3.15 239.181 5.80678C238.387 7.13194 237.217 7.60497 235.671 7.22613C233.602 5.5402 233.602 3.86278 235.671 2.19387Z" fill="white"/>
<path fill-rule="evenodd" clip-rule="evenodd" d="M0.909472 2.45117C0.821599 3.05866 0.691609 3.66072 0.519503 4.25762C0.302862 17.5918 0.346201 30.9252 0.649493 44.2576C1.81672 44.1534 3.02994 44.1534 4.28921 44.2576C5.43951 44.2481 6.52277 44.0759 7.53895 43.7415C8.10703 44.2679 8.75698 44.6122 9.4888 44.7738C9.73965 39.535 9.82633 34.2878 9.74878 29.0318C11.358 28.9485 12.9179 29.0344 14.4284 29.2899C13.0419 29.2899 11.6553 29.2899 10.2687 29.2899C10.2687 34.6233 10.2687 39.9565 10.2687 45.2899C6.889 45.2899 3.50927 45.2899 0.129534 45.2899C0.086195 31.3541 0.129534 17.4187 0.259523 3.48343C0.417643 3.0793 0.634284 2.73504 0.909472 2.45117Z" fill="white"/>
<path fill-rule="evenodd" clip-rule="evenodd" d="M143.118 4C144.158 4 145.198 4 146.238 4C146.238 4.43019 146.238 4.86013 146.238 5.29032C145.334 5.20877 144.467 5.33781 143.638 5.67742C143.284 6.08619 143.111 6.55948 143.118 7.09677C144.505 7.09677 145.892 7.09677 147.278 7.09677C147.278 7.87097 147.278 8.64516 147.278 9.41935C145.025 9.41935 142.772 9.41935 140.519 9.41935C140.519 8.47303 140.519 7.52697 140.519 6.58065C140.776 5.12077 141.643 4.26065 143.118 4Z" fill="white"/>
<path fill-rule="evenodd" clip-rule="evenodd" d="M180.296 7.09678C181.989 6.75665 183.722 6.75665 185.495 7.09678C185.463 7.25342 185.377 7.33936 185.235 7.35484C183.638 7.09936 181.991 7.01342 180.296 7.09678Z" fill="white"/>
<path fill-rule="evenodd" clip-rule="evenodd" d="M159.498 6.32294C162.097 5.85353 163.353 6.88578 163.267 9.41972C162.698 11.1008 161.528 11.7459 159.758 11.3552C158.321 10.6019 157.845 9.44062 158.328 7.87133C158.66 7.29146 159.05 6.77533 159.498 6.32294Z" fill="white"/>
<path fill-rule="evenodd" clip-rule="evenodd" d="M159.758 6.83871C160.864 6.87562 161.817 7.26271 162.617 8C162.546 8.70297 162.546 9.39123 162.617 10.0645C161.404 11.2725 160.321 11.1435 159.368 9.67742C159.344 9.03046 159.127 8.47123 158.718 8C158.941 7.47897 159.287 7.09188 159.758 6.83871Z" fill="white"/>
<path fill-rule="evenodd" clip-rule="evenodd" d="M232.552 7.35449C235.578 7.51243 236.488 8.97488 235.281 11.7416C233.642 12.9083 232.168 12.7364 230.862 11.2255C230.255 9.36223 230.819 8.07191 232.552 7.35449Z" fill="white"/>
<path fill-rule="evenodd" clip-rule="evenodd" d="M130.899 7.35484C133.999 7.2031 135.082 8.57935 134.149 11.4839C133.266 12.4395 132.183 12.7404 130.899 12.3871C129.463 11.6338 128.986 10.4725 129.469 8.90323C129.823 8.25213 130.3 7.736 130.899 7.35484Z" fill="white"/>
<path fill-rule="evenodd" clip-rule="evenodd" d="M166.777 6.32287C169.648 5.94713 170.904 7.15152 170.547 9.93577C169.198 11.7639 167.638 11.9358 165.867 10.4519C165.128 8.82119 165.431 7.44468 166.777 6.32287Z" fill="white"/>
<path fill-rule="evenodd" clip-rule="evenodd" d="M140.519 6.58105C140.519 7.52738 140.519 8.47344 140.519 9.41976C142.772 9.41976 145.025 9.41976 147.278 9.41976C144.986 9.67602 142.646 9.76222 140.259 9.67783C140.176 8.59344 140.263 7.56118 140.519 6.58105Z" fill="white"/>
<path fill-rule="evenodd" clip-rule="evenodd" d="M239.311 7.35483C242.646 7.27457 243.643 8.73703 242.301 11.7419C241.344 12.48 240.26 12.695 239.051 12.3871C237.809 11.4439 237.419 10.1966 237.881 8.64515C238.331 8.15432 238.807 7.72412 239.311 7.35483Z" fill="white"/>
<path fill-rule="evenodd" clip-rule="evenodd" d="M141.559 10.9677C143.118 10.9677 144.678 10.9677 146.238 10.9677C146.238 18.7097 146.238 26.4516 146.238 34.1936C144.678 34.1936 143.118 34.1936 141.559 34.1936C141.559 26.4516 141.559 18.7097 141.559 10.9677Z" fill="white"/>
<path fill-rule="evenodd" clip-rule="evenodd" d="M180.296 7.09718C181.991 7.01383 183.638 7.09976 185.235 7.35525C183.606 10.3325 182.046 13.3431 180.556 16.3875C180.415 16.403 180.328 16.4889 180.296 16.6456C183.758 16.9034 187.224 16.9896 190.695 16.9036C195.08 16.706 197.767 18.6845 198.754 22.8391C198.754 26.2799 198.754 29.7209 198.754 33.1617C191.819 33.2476 184.887 33.1617 177.956 32.9036C175.196 32.475 172.423 32.2169 169.637 32.1294C169.637 31.7854 169.637 31.4412 169.637 31.0972C177.957 31.1883 186.276 31.0592 194.595 30.7101C194.476 30.6032 194.389 30.4742 194.335 30.323C186.97 30.108 179.604 29.979 172.236 29.9359C171.747 29.8848 171.314 29.7558 170.937 29.5488C178.823 29.5488 186.709 29.5488 194.595 29.5488C194.678 28.0371 194.592 26.5746 194.335 25.1617C194.187 23.3382 193.233 22.1769 191.475 21.6778C186.386 21.6332 181.317 21.5042 176.266 21.2907C175.352 19.8608 174.919 18.3124 174.966 16.6456C176.742 13.4639 178.519 10.2812 180.296 7.09718Z" fill="white"/>
<path fill-rule="evenodd" clip-rule="evenodd" d="M129.6 15.3545C131.16 15.3545 132.72 15.3545 134.279 15.3545C134.279 21.634 134.279 27.9137 134.279 34.1932C134.207 40.1966 131.174 42.6051 125.18 41.419C125.077 39.7697 125.077 38.1354 125.18 36.5158C126.43 36.9078 127.643 36.8218 128.82 36.2577C129.102 35.9571 129.318 35.6131 129.47 35.2255C129.6 28.6022 129.643 21.9788 129.6 15.3545Z" fill="white"/>
<path fill-rule="evenodd" clip-rule="evenodd" d="M59.6653 15.3545C59.6653 25.3331 59.6653 35.3114 59.6653 45.29C57.7589 45.29 55.8522 45.29 53.9457 45.29C53.9457 41.2469 53.9457 37.204 53.9457 33.1609C54.3791 33.1609 54.8123 33.1609 55.2456 33.1609C55.3322 31.7847 55.419 30.4082 55.5056 29.0319C55.8522 29.0319 56.199 29.0319 56.5455 29.0319C56.6675 33.1622 56.8406 37.2913 57.0655 41.419C57.3255 36.8631 57.412 32.3039 57.3255 27.7416C56.8341 27.794 56.4441 27.6221 56.1556 27.2255C56.1194 26.4319 56.2494 25.6577 56.5455 24.9029C56.8055 24.9029 57.0655 24.9029 57.3255 24.9029C57.3663 24.5486 57.3229 24.2043 57.1955 23.8706C57.1089 24.0428 57.0221 24.2146 56.9355 24.3868C56.4038 23.6324 55.8405 22.9011 55.2456 22.1932C54.0796 22.0317 53.0397 21.6017 52.1259 20.9029C53.1658 20.7308 54.2057 20.7308 55.2456 20.9029C54.9256 21.2082 54.9256 21.5091 55.2456 21.8061C55.9317 22.2585 56.6248 22.3444 57.3255 22.0642C57.62 24.8977 57.7066 31.3493 57.5855 41.419C57.8454 41.419 58.1054 41.419 58.3654 41.419C58.3074 41.8944 58.2206 42.3674 58.1054 42.8384C58.0763 43.2673 58.2494 43.5684 58.6254 43.7416C58.8419 34.4526 58.9719 25.1622 59.0153 15.8706C59.1238 15.5465 59.3403 15.3744 59.6653 15.3545Z" fill="white"/>
<path fill-rule="evenodd" clip-rule="evenodd" d="M63.825 16.6455C64.1715 16.6455 64.5183 16.6455 64.8649 16.6455C64.9083 25.5062 64.8649 34.3663 64.7349 43.2262C64.4102 43.8692 64.1068 43.8262 63.825 43.0971C63.8372 34.3051 63.8372 25.4878 63.825 16.6455Z" fill="white"/>
<path fill-rule="evenodd" clip-rule="evenodd" d="M86.9632 15.3552C85.3539 15.2719 83.794 15.3578 82.2835 15.6133C82.3696 22.0234 82.283 28.3891 82.0236 34.7101C82.0236 28.1725 82.0236 21.6347 82.0236 15.0972C83.7191 15.0138 85.3656 15.0998 86.9632 15.3552Z" fill="white"/>
<path fill-rule="evenodd" clip-rule="evenodd" d="M129.6 15.3552C131.197 15.0998 132.844 15.0138 134.539 15.0972C134.625 21.5072 134.539 27.8729 134.279 34.194C134.279 27.9145 134.279 21.6347 134.279 15.3552C132.72 15.3552 131.16 15.3552 129.6 15.3552Z" fill="white"/>
<path fill-rule="evenodd" clip-rule="evenodd" d="M170.937 29.2903C170.937 29.3763 170.937 29.4625 170.937 29.5484C171.314 29.7554 171.748 29.8844 172.237 29.9355C179.604 29.9786 186.971 30.1076 194.335 30.3226C194.389 30.4738 194.476 30.6028 194.595 30.7097C186.276 31.0588 177.957 31.1879 169.637 31.0968C169.637 31.4408 169.637 31.785 169.637 32.129C172.424 32.2165 175.197 32.4746 177.956 32.9032C184.887 33.1613 191.82 33.2472 198.755 33.1613C198.755 33.4194 198.755 33.6774 198.755 33.9355C187.618 33.8498 176.526 33.9357 165.477 34.1935C163.188 34.3239 161.021 33.8937 158.978 32.9032C158.871 31.8139 158.265 31.1688 157.158 30.9677C156.804 30.4658 156.587 29.9066 156.508 29.2903C156.338 29.599 156.208 29.599 156.118 29.2903C156.427 29.0506 156.774 28.9646 157.158 29.0323C157.119 28.7608 157.163 28.5027 157.288 28.2581C157.995 29.1363 158.775 29.2225 159.628 28.5161C160.084 28.9677 160.647 29.1399 161.318 29.0323C162.853 29.4514 164.413 29.5804 165.997 29.4194C166.142 29.3205 166.229 29.1915 166.257 29.0323C166.604 29.0323 166.951 29.0323 167.297 29.0323C167.362 25.9275 167.275 22.8307 167.037 19.7419C166.18 19.7861 166.093 19.6142 166.777 19.2258C166.146 18.6031 165.539 18.6031 164.957 19.2258C162.315 18.6178 162.488 18.2738 165.477 18.1935C165.42 17.8903 165.507 17.6323 165.737 17.4194C166.43 17.7672 167.123 17.8532 167.817 17.6774C168.059 17.3706 168.145 17.0266 168.077 16.6452C166.813 16.7579 165.6 16.6289 164.438 16.2581C166.171 16.0859 167.904 16.0859 169.637 16.2581C169.767 16.3871 169.897 16.5161 170.027 16.6452C170.114 20.7742 170.2 24.9032 170.287 29.0323C170.461 29.2263 170.678 29.3125 170.937 29.2903Z" fill="white"/>
<path fill-rule="evenodd" clip-rule="evenodd" d="M170.937 29.2907C170.678 29.3129 170.461 29.2267 170.287 29.0326C170.2 24.9036 170.113 20.7746 170.027 16.6455C169.897 16.5165 169.767 16.3875 169.637 16.2584C167.903 16.0863 166.17 16.0863 164.437 16.2584C165.6 16.6293 166.813 16.7583 168.077 16.6455C168.145 17.0269 168.058 17.3709 167.817 17.6778C167.123 17.8535 166.43 17.7676 165.737 17.4197C165.507 17.6326 165.42 17.8907 165.477 18.1939C162.488 18.2742 162.314 18.6182 164.957 19.2262C165.539 18.6035 166.145 18.6035 166.777 19.2262C166.093 19.6146 166.18 19.7864 167.037 19.7423C167.275 22.8311 167.362 25.9278 167.297 29.0326C166.95 29.0326 166.603 29.0326 166.257 29.0326C166.257 26.0218 166.257 23.0112 166.257 20.0004C163.522 19.5717 161.226 20.3459 159.367 22.3229C158.2 25.0816 158.85 27.3183 161.317 29.0326C160.647 29.1402 160.083 28.9681 159.627 28.5165C158.775 29.2228 157.995 29.1366 157.288 28.2584C157.162 28.5031 157.119 28.7611 157.158 29.0326C156.773 28.965 156.427 29.0509 156.118 29.2907C156.208 29.5993 156.338 29.5993 156.508 29.2907C156.586 29.9069 156.803 30.4662 157.158 30.9681C158.264 31.1691 158.871 31.8143 158.977 32.9036C156.393 31.7384 154.789 29.7598 154.168 26.9681C153.36 21.2308 155.743 17.4889 161.317 15.7423C164.508 15.3764 167.714 15.2473 170.937 15.3552C170.937 20.0004 170.937 24.6455 170.937 29.2907Z" fill="white"/>
<path fill-rule="evenodd" clip-rule="evenodd" d="M180.556 16.3867C183.936 16.5588 187.315 16.7307 190.695 16.9028C187.224 16.9888 183.758 16.9026 180.296 16.6448C180.328 16.4881 180.415 16.4022 180.556 16.3867Z" fill="white"/>
<path fill-rule="evenodd" clip-rule="evenodd" d="M211.493 15.3552C209.933 15.3552 208.374 15.3552 206.814 15.3552C206.814 21.4629 206.814 27.5702 206.814 33.6778C206.858 33.9338 206.772 34.1057 206.554 34.194C206.554 27.8283 206.554 21.4629 206.554 15.0972C208.249 15.0138 209.896 15.0998 211.493 15.3552Z" fill="white"/>
<path fill-rule="evenodd" clip-rule="evenodd" d="M220.853 29.5484C221.368 29.6369 221.715 29.4648 221.893 29.0323C222.407 26.0335 222.58 22.9368 222.412 19.7419C222.758 21.1943 222.931 22.7427 222.932 24.3871C222.889 25.9355 222.846 27.4839 222.802 29.0323C222.684 29.5577 222.468 30.031 222.152 30.4516C222.196 30.5806 222.239 30.7097 222.282 30.8387C222.363 30.6302 222.493 30.4581 222.672 30.3226C222.802 30.6072 222.889 30.8653 222.932 31.0968C223.106 30.9246 223.279 30.7528 223.452 30.5806C223.831 31.0034 223.918 31.4335 223.712 31.871C223.035 32.1683 222.342 32.2111 221.633 32C221.719 31.9141 221.806 31.8279 221.893 31.7419C221.682 31.6625 221.509 31.5334 221.373 31.3548C221.669 31.1161 221.669 30.9009 221.373 30.7097C220.797 30.4403 220.19 30.2684 219.553 30.1935C216.781 30.0645 214.008 30.0214 211.233 30.0645C211.233 30.4085 211.233 30.7528 211.233 31.0968C213.911 31.0098 216.684 31.0098 219.553 31.0968C219.553 31.4408 219.553 31.785 219.553 32.129C220.562 32.0062 221.429 32.2643 222.152 32.9032C218.513 33.0754 214.873 33.2472 211.233 33.4194C218.164 33.6774 225.097 33.7634 232.032 33.6774C232.032 33.3334 232.032 32.9892 232.032 32.6452C230.19 32.5832 228.37 32.7554 226.572 33.1613C226.139 33.0754 225.706 32.9892 225.272 32.9032C225.916 32.0942 226.782 31.7502 227.872 31.871C227.872 31.6129 227.872 31.3548 227.872 31.0968C229.401 31.0276 230.918 31.1138 232.422 31.3548C232.467 31.8379 232.683 32.3541 233.072 32.9032C233.286 33.1319 233.546 33.2178 233.852 33.1613C233.071 33.616 232.204 33.9169 231.252 34.0645C224.579 34.1935 217.907 34.2366 211.233 34.1935C211.223 40.0929 208.276 42.4586 202.394 41.2903C202.144 40.3277 202.058 39.3386 202.134 38.3226C202.011 37.6563 202.184 37.1401 202.654 36.7742C205.099 37.4883 206.399 36.6281 206.554 34.1935C206.772 34.1053 206.858 33.9334 206.814 33.6774C207.073 27.7866 207.16 21.8511 207.074 15.871C208.46 15.871 209.847 15.871 211.233 15.871C211.233 20.5161 211.233 25.1613 211.233 29.8065C214.486 29.8914 217.693 29.8052 220.853 29.5484Z" fill="white"/>
<path fill-rule="evenodd" clip-rule="evenodd" d="M247.371 13.0323C248.931 13.0323 250.491 13.0323 252.051 13.0323C252.051 17.5053 252.051 21.9786 252.051 26.4516C252.004 29.0366 251.05 31.1871 249.191 32.9032C249.823 31.8547 250.387 30.7363 250.881 29.5484C250.969 28.0836 251.271 26.6643 251.791 25.2903C251.46 23.8196 251.289 22.3143 251.271 20.7742C251.401 18.359 251.575 15.9505 251.791 13.5484C250.647 13.4782 249.518 13.5641 248.411 13.8065C247.977 14.3252 247.803 14.9272 247.891 15.6129C248.151 15.6129 248.411 15.6129 248.671 15.6129C248.671 15.9569 248.671 16.3012 248.671 16.6452C248.411 16.6452 248.151 16.6452 247.891 16.6452C247.891 20.7742 247.891 24.9032 247.891 29.0323C247.535 28.9917 247.186 29.0348 246.851 29.1613C246.591 29.4194 246.331 29.6774 246.071 29.9355C244.793 29.9858 243.536 30.1148 242.301 30.3226C241.703 29.9698 241.053 29.7977 240.352 29.8064C240.352 29.4625 240.352 29.1182 240.352 28.7742C242.089 29.9739 243.909 30.103 245.811 29.1613C246.489 28.6612 246.965 28.016 247.241 27.2258C247.371 22.4955 247.415 17.7641 247.371 13.0323Z" fill="white"/>
<path fill-rule="evenodd" clip-rule="evenodd" d="M247.37 13.032C248.966 12.7765 250.615 12.6906 252.31 12.7739C252.396 17.3781 252.31 21.9373 252.05 26.4514C252.05 21.9783 252.05 17.505 252.05 13.032C250.49 13.032 248.93 13.032 247.37 13.032Z" fill="white"/>
<path fill-rule="evenodd" clip-rule="evenodd" d="M239.051 24.9032C238.581 22.9409 238.365 20.8764 238.401 18.7097C237.573 18.0294 237.01 18.2444 236.711 19.3548C236.958 21.1928 237.044 23.0421 236.971 24.9032C237.318 24.9032 237.665 24.9032 238.011 24.9032C238.06 26.2826 238.146 27.6588 238.271 29.0323C237.751 29.0323 237.231 29.0323 236.711 29.0323C237.143 28.0555 237.273 27.0232 237.101 25.9355C236.838 25.7195 236.535 25.6335 236.191 25.6774C236.235 24.0408 236.191 22.4065 236.061 20.7742C235.876 20.1685 235.573 19.6524 235.151 19.2258C235.065 19.4839 234.978 19.7419 234.892 20C234.969 21.8405 235.229 23.647 235.671 25.4194C235.419 26.1843 235.376 26.9585 235.541 27.7419C236.033 28.0302 236.25 28.4604 236.191 29.0323C234.978 29.0323 233.765 29.0323 232.552 29.0323C233.372 28.3453 233.935 27.4852 234.242 26.4516C234.372 23.2699 234.415 20.0872 234.372 16.9032C235.931 16.9032 237.491 16.9032 239.051 16.9032C239.051 19.5698 239.051 22.2366 239.051 24.9032Z" fill="white"/>
<path fill-rule="evenodd" clip-rule="evenodd" d="M121.28 21.0323C120.717 20.7365 120.37 20.2635 120.24 19.6129C119.111 19.232 118.504 19.6191 118.42 20.7742C118.854 20.7742 119.287 20.7742 119.72 20.7742C119.749 21.7796 120.009 22.7259 120.5 23.6129C119.921 25.3623 119.575 27.1688 119.46 29.0323C119.202 27.6666 119.115 26.2903 119.2 24.9032C118.68 24.9032 118.16 24.9032 117.64 24.9032C117.561 26.3466 117.647 27.7659 117.9 29.1613C117.331 29.9246 116.551 30.2258 115.561 30.0645C114.57 30.2258 113.79 29.9246 113.221 29.1613C113.72 27.8201 113.893 26.4008 113.741 24.9032C113.02 24.9755 112.37 24.8034 111.791 24.3871C111.711 23.8676 111.884 23.7817 112.311 24.129C112.516 23.3203 112.43 22.5461 112.051 21.8065C111.877 22.1505 111.704 22.1505 111.531 21.8065C111.444 22.4947 111.357 23.1827 111.271 23.871C111.161 23.1574 110.771 22.8563 110.101 22.9677C110.643 23.3551 110.989 23.8712 111.141 24.5161C110.898 26.009 110.811 27.5143 110.881 29.0323C110.534 29.0323 110.188 29.0323 109.841 29.0323C110.426 27.145 110.079 25.4676 108.801 24C105.845 22.9303 104.372 23.9626 104.381 27.0968C104.44 27.7492 104.527 28.3943 104.641 29.0323C103.948 29.0323 103.255 29.0323 102.562 29.0323C102.562 27.656 102.562 26.2795 102.562 24.9032C102.05 24.9649 101.573 24.879 101.132 24.6452C100.767 26.0759 100.637 27.5381 100.742 29.0323C101.088 29.0323 101.435 29.0323 101.782 29.0323C101.812 29.5443 101.639 29.9742 101.262 30.3226C96.4562 30.1554 91.5166 29.9832 86.4429 29.8065C86.4429 25.0754 86.4429 20.344 86.4429 15.6129C85.0564 15.6129 83.6697 15.6129 82.2832 15.6129C83.7937 15.3574 85.3536 15.2715 86.9628 15.3548C86.9628 20 86.9628 24.6452 86.9628 29.2903C91.4701 29.3334 95.9763 29.2903 100.482 29.1613C99.4296 25.239 100.556 22.1422 103.862 19.871C108.386 18.384 111.722 19.7174 113.871 23.871C114.206 25.313 114.336 26.7755 114.261 28.2581C114.013 28.6243 113.927 29.0542 114.001 29.5484C115.093 29.6302 116.133 29.544 117.12 29.2903C118.136 24.8145 117.009 20.9863 113.741 17.8065C109.301 15.743 104.968 15.9579 100.742 18.4516C100.095 17.1714 99.575 15.8382 99.1819 14.4516C104.4 11.1086 109.86 10.6785 115.561 13.1613C118.456 15.0831 120.362 17.7066 121.28 21.0323Z" fill="white"/>
<path fill-rule="evenodd" clip-rule="evenodd" d="M249.19 32.9029C246.613 34.3341 243.84 34.8072 240.871 34.3223C239.075 33.8263 237.645 32.8371 236.581 31.3545C235.813 32.186 234.903 32.7883 233.852 33.161C233.546 33.2175 233.286 33.1316 233.072 32.9029C232.683 32.3538 232.467 31.8376 232.422 31.3545C230.918 31.1135 229.401 31.0273 227.872 31.0965C227.872 31.3545 227.872 31.6126 227.872 31.8707C226.782 31.7499 225.916 32.0939 225.272 32.9029C225.706 32.9889 226.139 33.075 226.572 33.161C228.37 32.755 230.19 32.5829 232.032 32.6449C232.032 32.9889 232.032 33.3331 232.032 33.6771C225.097 33.763 218.164 33.6771 211.233 33.419C214.873 33.2469 218.513 33.075 222.153 32.9029C221.429 32.264 220.562 32.0059 219.553 32.1287C219.553 31.7847 219.553 31.4405 219.553 31.0965C216.684 31.0095 213.911 31.0095 211.233 31.0965C211.233 30.7525 211.233 30.4082 211.233 30.0642C214.008 30.0211 216.781 30.0642 219.553 30.1932C220.19 30.2681 220.797 30.44 221.373 30.7094C221.669 30.9006 221.669 31.1158 221.373 31.3545C221.509 31.5331 221.682 31.6621 221.893 31.7416C221.806 31.8276 221.719 31.9138 221.633 31.9997C222.342 32.2108 223.035 32.1679 223.712 31.8707C223.918 31.4332 223.831 31.003 223.452 30.5803C223.279 30.7525 223.106 30.9243 222.932 31.0965C222.889 30.865 222.802 30.6069 222.672 30.3223C222.493 30.4578 222.363 30.6299 222.282 30.8384C222.239 30.7094 222.196 30.5803 222.153 30.4513C222.468 30.0307 222.684 29.5574 222.802 29.0319C222.846 27.4836 222.889 25.9352 222.932 24.3868C222.931 22.7424 222.758 21.194 222.412 19.7416C222.26 19.0291 222.52 18.5992 223.192 18.4513C223.712 18.7094 224.232 18.9674 224.752 19.2255C224.599 19.7089 224.773 20.139 225.272 20.5158C225.487 20.7445 225.747 20.8304 226.052 20.7739C226.216 23.6358 226.043 26.4314 225.532 29.161C225.62 30.0227 226.097 30.4098 226.962 30.3223C228.561 30.1476 230.164 30.0185 231.772 29.9352C231.989 29.6743 232.076 29.3731 232.032 29.0319C232.205 29.0319 232.378 29.0319 232.552 29.0319C233.765 29.0319 234.978 29.0319 236.191 29.0319C236.25 28.4601 236.033 28.0299 235.541 27.7416C235.376 26.9581 235.419 26.184 235.671 25.419C235.229 23.6467 234.969 21.8402 234.892 19.9997C234.978 19.7416 235.065 19.4836 235.151 19.2255C235.573 19.6521 235.876 20.1682 236.061 20.7739C236.191 22.4061 236.235 24.0405 236.191 25.6771C236.535 25.6332 236.838 25.7192 237.101 25.9352C237.273 27.0229 237.143 28.0552 236.711 29.0319C237.231 29.0319 237.751 29.0319 238.271 29.0319C238.146 27.6585 238.06 26.2823 238.011 24.9029C237.665 24.9029 237.318 24.9029 236.971 24.9029C237.044 23.0418 236.958 21.1925 236.711 19.3545C237.01 18.2441 237.573 18.0291 238.401 18.7094C238.365 20.8761 238.581 22.9406 239.051 24.9029C239.047 26.3512 239.48 27.6415 240.351 28.7739C240.351 29.1179 240.351 29.4621 240.351 29.8061C241.053 29.7974 241.703 29.9695 242.301 30.3223C243.536 30.1145 244.792 29.9855 246.071 29.9352C246.331 29.6771 246.591 29.419 246.851 29.161C247.186 29.0345 247.534 28.9914 247.89 29.0319C247.89 24.9029 247.89 20.7739 247.89 16.6449C248.15 16.6449 248.41 16.6449 248.67 16.6449C248.67 16.3009 248.67 15.9566 248.67 15.6126C248.41 15.6126 248.15 15.6126 247.89 15.6126C247.802 14.9269 247.976 14.3249 248.41 13.8061C249.518 13.5638 250.646 13.4779 251.79 13.5481C251.574 15.9501 251.4 18.3587 251.27 20.7739C251.288 22.314 251.46 23.8193 251.79 25.29C251.27 26.664 250.969 28.0833 250.88 29.5481C250.386 30.736 249.822 31.8544 249.19 32.9029Z" fill="white"/>
<path fill-rule="evenodd" clip-rule="evenodd" d="M226.312 16.9032C226.571 20.9871 226.658 25.1161 226.572 29.2903C227.959 29.2903 229.346 29.2903 230.732 29.2903C229.309 29.5456 227.835 29.6315 226.312 29.5484C226.312 25.3334 226.312 21.1182 226.312 16.9032Z" fill="white"/>
<path fill-rule="evenodd" clip-rule="evenodd" d="M53.4258 30.3226C53.4258 30.4085 53.4258 30.4947 53.4258 30.5806C52.4821 31.6467 51.4856 32.679 50.436 33.6774C50.306 37.5473 50.2626 41.4183 50.306 45.2903C48.2262 45.2903 46.1464 45.2903 44.0665 45.2903C44.1099 38.9241 44.0665 32.5584 43.9365 26.1935C43.1501 25.0224 42.067 24.3344 40.6868 24.129C39.3848 23.5917 37.9981 23.2906 36.5271 23.2258C33.0611 23.0126 29.5948 22.9264 26.1279 22.9677C24.0655 23.3153 22.3322 24.2186 20.9284 25.6774C20.7666 25.9683 20.5501 26.2263 20.2784 26.4516C20.2347 34.6673 20.1047 42.8395 19.8884 50.9677C19.8884 42.5375 19.8884 34.1076 19.8884 25.6774C20.1484 25.6774 20.4084 25.6774 20.6684 25.6774C20.6632 25.2534 20.8366 24.9094 21.1883 24.6452C21.1018 24.473 21.0149 24.3012 20.9284 24.129C22.5883 23.7363 22.5017 23.4353 20.6684 23.2258C21.7637 22.6134 22.8904 22.0542 24.0481 21.5484C24.8273 21.2965 25.6072 21.3393 26.3879 21.6774C26.0913 21.8686 26.0913 22.0839 26.3879 22.3226C26.9711 22.5739 27.5776 22.6601 28.2078 22.5806C28.2078 22.1504 28.2078 21.7205 28.2078 21.2903C27.2854 21.3948 26.4189 21.2658 25.608 20.9032C26.8629 20.6751 28.0762 20.8041 29.2477 21.2903C29.4578 21.2108 29.6312 21.0818 29.7677 20.9032C31.8475 20.7311 33.9273 20.7311 36.0072 20.9032C34.9397 21.7102 33.8132 21.7533 32.6274 21.0323C32.3763 21.5215 32.2897 22.0377 32.3675 22.5806C34.6223 22.5378 36.8755 22.5806 39.1269 22.7097C39.5195 22.929 39.9095 23.144 40.2968 23.3548C40.5425 23.2503 40.7159 23.0782 40.8168 22.8387C41.1113 23.2803 41.5013 23.4093 41.9867 23.2258C42.619 22.9453 42.5321 22.8163 41.7267 22.8387C41.6825 22.4975 41.7691 22.1964 41.9867 21.9355C41.7267 21.6774 41.4667 21.4193 41.2068 21.1613C41.948 20.8286 42.7279 20.6996 43.5466 20.7742C43.5908 21.1153 43.5042 21.4165 43.2866 21.6774C43.6404 22.0862 43.8138 22.5595 43.8066 23.0968C44.1502 23.1406 44.4536 23.0547 44.7165 22.8387C44.9471 23.8485 44.8171 24.7948 44.3265 25.6774C44.3834 26.0485 44.5134 26.3925 44.7165 26.7097C44.8465 31.6121 44.8899 36.5153 44.8465 41.4193C46.2329 41.4193 47.6197 41.4193 49.0061 41.4193C49.0061 41.6774 49.0061 41.9355 49.0061 42.1935C47.6197 42.1935 46.2329 42.1935 44.8465 42.1935C44.8465 42.8818 44.8465 43.5698 44.8465 44.2581C46.2439 44.3427 47.6303 44.2568 49.0061 44C49.2045 43.6854 49.4645 43.4273 49.7861 43.2258C50.0052 39.8699 50.0921 36.5151 50.0461 33.1613C50.7571 31.9729 51.7104 31.0268 52.9058 30.3226C53.0792 29.8924 53.2524 29.4624 53.4258 29.0323C54.0716 29.5146 54.0716 29.9448 53.4258 30.3226Z" fill="white"/>
<path fill-rule="evenodd" clip-rule="evenodd" d="M32.6272 26.4513C32.6272 34.1932 32.6272 41.9351 32.6272 49.6771C32.3844 49.9527 32.2975 50.2967 32.3672 50.7093C29.594 50.7093 26.8211 50.7093 24.0479 50.7093C24.0479 42.6234 24.0479 34.5372 24.0479 26.4513C24.4987 25.7545 25.1054 25.2384 25.8677 24.9029C28.5322 23.6286 30.7852 24.1447 32.6272 26.4513Z" fill="white"/>
<path fill-rule="evenodd" clip-rule="evenodd" d="M37.3066 24.129C36.3493 24.0864 35.3963 24.1293 34.4468 24.2581C34.9153 24.7295 35.4784 25.0307 36.1367 25.1613C36.2365 26.0085 36.3665 26.9117 36.5266 27.871C36.2765 35.1363 36.1897 42.4049 36.2667 49.6774C36.2667 50.1076 36.2667 50.5375 36.2667 50.9677C36.0504 43.0975 35.9204 35.1835 35.8767 27.2258C35.4254 25.4872 34.342 24.3259 32.627 23.7419C34.25 23.5321 35.8099 23.6612 37.3066 24.129Z" fill="white"/>
<path fill-rule="evenodd" clip-rule="evenodd" d="M24.0481 26.4512C24.0481 34.5371 24.0481 42.6233 24.0481 50.7092C26.8213 50.7092 29.5942 50.7092 32.3674 50.7092C32.2978 50.2966 32.3846 49.9526 32.6274 49.677C32.6274 50.1072 32.6274 50.5371 32.6274 50.9673C29.6811 50.9673 26.7345 50.9673 23.7881 50.9673C23.7018 42.751 23.7886 34.5792 24.0481 26.4512Z" fill="white"/>
<path fill-rule="evenodd" clip-rule="evenodd" d="M39.9073 26.1935C40.0677 26.2222 40.1977 26.3081 40.2973 26.4516C40.4273 34.6232 40.4707 42.7953 40.4273 50.9677C39.0408 50.9677 37.654 50.9677 36.2676 50.9677C36.2676 50.5375 36.2676 50.1076 36.2676 49.6774C36.5104 49.953 36.5972 50.297 36.5276 50.7097C37.7456 50.5641 38.8723 50.2199 39.9073 49.6774C39.9073 41.8495 39.9073 34.0214 39.9073 26.1935Z" fill="white"/>
<path fill-rule="evenodd" clip-rule="evenodd" d="M37.3071 24.129C38.5687 24.351 39.4353 25.0392 39.9069 26.1935C39.9069 34.0214 39.9069 41.8495 39.9069 49.6774C38.8719 50.2199 37.7451 50.5641 36.5271 50.7097C36.5968 50.297 36.51 49.953 36.2671 49.6774C36.1902 42.4049 36.277 35.1363 36.5271 27.871C36.367 26.9117 36.237 26.0085 36.1372 25.1613C35.4789 25.0307 34.9158 24.7295 34.4473 24.2581C35.3967 24.1293 36.3498 24.0865 37.3071 24.129Z" fill="white"/>
<path fill-rule="evenodd" clip-rule="evenodd" d="M194.335 25.1613C194.592 26.5742 194.678 28.0366 194.595 29.5484C186.709 29.5484 178.822 29.5484 170.937 29.5484C170.937 29.4625 170.937 29.3763 170.937 29.2903C178.736 29.2903 186.535 29.2903 194.335 29.2903C194.335 27.9141 194.335 26.5376 194.335 25.1613Z" fill="white"/>
<path fill-rule="evenodd" clip-rule="evenodd" d="M221.893 16.9032C221.893 20.9463 221.893 24.9892 221.893 29.0323C221.715 29.4648 221.368 29.6369 220.853 29.5484C217.687 29.633 214.567 29.5471 211.493 29.2903C214.873 29.2903 218.253 29.2903 221.633 29.2903C221.547 25.1161 221.634 20.9871 221.893 16.9032Z" fill="white"/>
<path fill-rule="evenodd" clip-rule="evenodd" d="M211.493 15.3545C211.493 19.9997 211.493 24.6448 211.493 29.29C214.567 29.5468 217.686 29.6327 220.852 29.548C217.692 29.8048 214.486 29.891 211.233 29.8061C211.233 25.1609 211.233 20.5158 211.233 15.8706C209.847 15.8706 208.46 15.8706 207.073 15.8706C207.16 21.8507 207.073 27.7862 206.813 33.6771C206.813 27.5695 206.813 21.4621 206.813 15.3545C208.373 15.3545 209.933 15.3545 211.493 15.3545Z" fill="white"/>
<path fill-rule="evenodd" clip-rule="evenodd" d="M221.893 16.9032C223.366 16.9032 224.839 16.9032 226.312 16.9032C226.312 21.1182 226.312 25.3334 226.312 29.5484C227.835 29.6315 229.308 29.5455 230.732 29.2903C231.178 29.257 231.611 29.1711 232.032 29.0323C232.076 29.3734 231.989 29.6746 231.772 29.9355C230.164 30.0188 228.561 30.1479 226.962 30.3226C226.097 30.4101 225.62 30.023 225.532 29.1613C226.043 26.4317 226.216 23.6361 226.052 20.7742C225.747 20.8307 225.487 20.7448 225.272 20.5161C224.773 20.1394 224.599 19.7092 224.752 19.2258C224.232 18.9677 223.712 18.7097 223.192 18.4516C222.52 18.5995 222.26 19.0294 222.412 19.7419C222.58 22.9368 222.407 26.0335 221.893 29.0323C221.893 24.9892 221.893 20.9463 221.893 16.9032Z" fill="white"/>
<path fill-rule="evenodd" clip-rule="evenodd" d="M82.2835 15.6133C83.67 15.6133 85.0567 15.6133 86.4432 15.6133C86.4432 20.3444 86.4432 25.0757 86.4432 29.8068C91.5169 29.9836 96.4566 30.1557 101.262 30.323C101.639 29.9746 101.812 29.5446 101.782 29.0326C101.435 29.0326 101.089 29.0326 100.742 29.0326C100.637 27.5384 100.767 26.0762 101.132 24.6455C101.574 24.8793 102.051 24.9653 102.562 24.9036C102.562 26.2799 102.562 27.6564 102.562 29.0326C103.255 29.0326 103.948 29.0326 104.642 29.0326C105.403 29.3733 106.269 29.5452 107.242 29.5488C108.214 29.5452 109.08 29.3733 109.841 29.0326C110.188 29.0326 110.535 29.0326 110.881 29.0326C110.812 27.5147 110.898 26.0094 111.141 24.5165C110.99 23.8716 110.643 23.3555 110.101 22.9681C110.772 22.8566 111.162 23.1578 111.271 23.8713C111.358 23.1831 111.445 22.4951 111.531 21.8068C111.705 22.1508 111.878 22.1508 112.051 21.8068C112.43 22.5464 112.517 23.3206 112.311 24.1294C111.884 23.7821 111.711 23.868 111.791 24.3875C112.37 24.8037 113.02 24.9759 113.741 24.9036C113.894 26.4012 113.72 27.8205 113.221 29.1617C113.79 29.925 114.57 30.2262 115.561 30.0649C116.552 30.2262 117.332 29.925 117.901 29.1617C117.648 27.7663 117.561 26.347 117.641 24.9036C118.161 24.9036 118.681 24.9036 119.201 24.9036C119.115 26.2907 119.202 27.667 119.461 29.0326C119.575 27.1692 119.922 25.3627 120.501 23.6133C120.01 22.7263 119.75 21.78 119.721 20.7746C119.287 20.7746 118.854 20.7746 118.421 20.7746C118.504 19.6195 119.111 19.2324 120.241 19.6133C120.371 20.2639 120.717 20.7369 121.28 21.0326C122.376 25.3498 122.246 29.651 120.89 33.9359C120.538 34.163 120.148 34.2492 119.721 34.1939C108.672 33.9361 97.5799 33.8502 86.4432 33.9359C86.4432 34.796 86.4432 35.6564 86.4432 36.5165C86.2461 38.9919 84.9462 40.5833 82.5435 41.2907C80.9836 41.4628 79.4237 41.4628 77.8639 41.2907C77.6853 39.7934 77.5118 38.2881 77.3439 36.7746C78.5255 36.7637 79.7388 36.7206 80.9836 36.6455C81.6398 36.1596 81.9866 35.5144 82.0235 34.7101C82.283 28.389 82.3696 22.0233 82.2835 15.6133Z" fill="white"/>
<path fill-rule="evenodd" clip-rule="evenodd" d="M114.261 28.2578C114.261 28.6018 114.261 28.9461 114.261 29.2901C115.214 29.2901 116.167 29.2901 117.121 29.2901C116.133 29.5437 115.093 29.6299 114.001 29.5481C113.927 29.0539 114.014 28.624 114.261 28.2578Z" fill="white"/>
<path fill-rule="evenodd" clip-rule="evenodd" d="M53.4258 30.5803C53.4258 30.4944 53.4258 30.4082 53.4258 30.3223C53.9234 31.1439 54.0965 32.0903 53.9457 33.161C53.9457 37.2041 53.9457 41.2469 53.9457 45.29C53.7723 40.3868 53.5992 35.4836 53.4258 30.5803Z" fill="white"/>
<path fill-rule="evenodd" clip-rule="evenodd" d="M119.721 34.1936C108.801 34.1936 97.8823 34.1936 86.9632 34.1936C87.0372 35.0526 86.8638 35.8268 86.4432 36.5161C86.4432 35.656 86.4432 34.7956 86.4432 33.9355C97.5799 33.8498 108.672 33.9357 119.721 34.1936Z" fill="white"/>
<path fill-rule="evenodd" clip-rule="evenodd" d="M198.754 22.8387C199.013 26.5781 199.099 30.3631 199.014 34.1936C187.835 34.1936 176.656 34.1936 165.477 34.1936C176.525 33.9357 187.617 33.8498 198.754 33.9355C198.754 33.6774 198.754 33.4194 198.754 33.1613C198.754 29.7205 198.754 26.2795 198.754 22.8387Z" fill="white"/>
<path fill-rule="evenodd" clip-rule="evenodd" d="M202.654 36.7742C202.184 37.1401 202.01 37.6563 202.134 38.3226C201.882 37.7788 201.795 37.1765 201.874 36.5161C202.209 36.455 202.469 36.5409 202.654 36.7742Z" fill="white"/>
<path fill-rule="evenodd" clip-rule="evenodd" d="M59.6648 49.1613C59.6648 50.3657 59.6648 51.5698 59.6648 52.7742C60.8782 52.7742 62.0912 52.7742 63.3045 52.7742C63.3045 51.5698 63.3045 50.3657 63.3045 49.1613C65.4709 49.1613 67.6376 49.1613 69.804 49.1613C69.8475 52.5172 69.804 55.872 69.674 59.2258C69.0275 61.8446 67.3376 63.264 64.6044 63.4839C44.6726 63.656 24.741 63.656 4.80915 63.4839C2.64142 63.1608 1.12485 61.9995 0.259509 60C0.129545 56.3881 0.0862064 52.7752 0.129519 49.1613C3.68258 49.1613 7.23562 49.1613 10.7887 49.1613C11.7484 54.4903 9.66856 57.9311 4.54917 59.4839C7.03104 60.2725 9.45751 60.1435 11.8286 59.0968C13.7082 57.8529 14.5748 56.0895 14.4284 53.8064C24.3076 53.8064 34.1868 53.8064 44.0661 53.8064C44.0661 52.2581 44.0661 50.7097 44.0661 49.1613C46.1459 49.1613 48.2257 49.1613 50.3056 49.1613C51.8808 54.6686 49.9741 58.2387 44.586 59.871C46.8762 60.4704 49.1294 60.2986 51.3455 59.3548C52.2253 58.8563 52.962 58.2111 53.5553 57.4193C53.6853 54.6681 53.7287 51.9153 53.6853 49.1613C55.6786 49.1613 57.6716 49.1613 59.6648 49.1613Z" fill="white"/>
<path fill-rule="evenodd" clip-rule="evenodd" d="M116.341 49.4189C116.6 54.1051 116.687 58.8362 116.601 63.6125C115.509 63.6943 114.469 63.6081 113.481 63.3544C114.435 63.3544 115.388 63.3544 116.341 63.3544C116.341 58.7093 116.341 54.0641 116.341 49.4189Z" fill="white"/>
<path fill-rule="evenodd" clip-rule="evenodd" d="M230.472 49.6774C229.605 49.6774 228.739 49.6774 227.872 49.6774C227.872 54.2366 227.872 58.7956 227.872 63.3548C227.613 58.7546 227.526 54.1094 227.612 49.4194C228.618 49.3381 229.572 49.424 230.472 49.6774Z" fill="white"/>
<path fill-rule="evenodd" clip-rule="evenodd" d="M239.051 49.4189C239.051 54.0641 239.051 58.7093 239.051 63.3544C238.185 63.3544 237.318 63.3544 236.451 63.3544C234.418 60.3511 232.381 57.3402 230.342 54.3222C230.212 57.4177 230.168 60.5144 230.212 63.6125C229.377 63.6925 228.597 63.6066 227.872 63.3544C227.872 58.7952 227.872 54.2362 227.872 49.677C228.739 49.677 229.605 49.677 230.472 49.677C232.451 52.6326 234.488 55.5573 236.581 58.4512C236.711 55.4417 236.755 52.4308 236.711 49.4189C237.491 49.4189 238.271 49.4189 239.051 49.4189Z" fill="white"/>
<path fill-rule="evenodd" clip-rule="evenodd" d="M239.051 49.4189C239.31 54.1051 239.397 58.8362 239.311 63.6125C238.305 63.6938 237.351 63.6078 236.451 63.3544C237.318 63.3544 238.185 63.3544 239.051 63.3544C239.051 58.7093 239.051 54.0641 239.051 49.4189Z" fill="white"/>
<path fill-rule="evenodd" clip-rule="evenodd" d="M32.6274 26.4512C32.8869 34.6651 32.9737 42.9232 32.8874 51.2254C29.808 51.31 26.7748 51.2241 23.7881 50.9673C26.7345 50.9673 29.6811 50.9673 32.6274 50.9673C32.6274 50.5371 32.6274 50.1072 32.6274 49.677C32.6274 41.935 32.6274 34.1931 32.6274 26.4512Z" fill="white"/>
<path fill-rule="evenodd" clip-rule="evenodd" d="M172.236 49.1613C176.68 48.4622 179.67 50.1828 181.206 54.3226C181.932 60.9982 178.943 64.1381 172.236 63.742C168.094 62.1879 166.404 59.2202 167.167 54.8388C167.634 51.839 169.324 49.9466 172.236 49.1613ZM172.756 51.2254C175.661 50.7959 177.438 52.0001 178.086 54.8383C178.527 57.0514 178.051 59.03 176.656 60.7737C175.212 62.006 173.653 62.135 171.976 61.1608C169.884 58.4563 169.624 55.5745 171.197 52.5157C171.652 51.9745 172.172 51.5446 172.756 51.2254Z" fill="white"/>
<path fill-rule="evenodd" clip-rule="evenodd" d="M137.139 57.6775C136.881 59.5221 136.795 61.4145 136.879 63.3549C136.013 63.3549 135.146 63.3549 134.279 63.3549C134.279 58.7957 134.279 54.2367 134.279 49.6775C136.487 49.3789 138.74 49.3358 141.039 49.5485C143.369 50.1709 144.279 51.6765 143.769 54.0646C143.226 55.2909 142.402 56.2803 141.299 57.0323C142.718 59.1727 144.191 61.2803 145.719 63.3549C144.515 63.6548 143.301 63.6976 142.079 63.4839C140.995 61.7206 139.912 59.957 138.829 58.1936C138.364 57.7474 137.801 57.5753 137.139 57.6775ZM136.879 51.4839C138.027 51.4336 139.154 51.5626 140.259 51.871C141.308 53.7737 140.789 55.064 138.699 55.7419C138.099 55.8702 137.492 55.913 136.879 55.871C136.879 54.4085 136.879 52.9463 136.879 51.4839Z" fill="white"/>
<path fill-rule="evenodd" clip-rule="evenodd" d="M201.614 49.4194C203.782 49.3766 205.949 49.4194 208.114 49.5484C210.717 50.1095 211.713 51.701 211.103 54.3226C210.634 56.1652 209.464 57.3265 207.594 57.8065C206.557 57.9353 205.517 57.9784 204.474 57.9355C204.474 59.8279 204.474 61.7206 204.474 63.613C203.521 63.613 202.567 63.613 201.614 63.613C201.614 58.8819 201.614 54.1505 201.614 49.4194ZM204.474 51.4839C205.344 51.4413 206.211 51.4844 207.073 51.6129C208.443 52.8717 208.443 54.1621 207.073 55.4839C206.244 55.8235 205.378 55.9525 204.474 55.871C204.474 54.4085 204.474 52.9463 204.474 51.4839Z" fill="white"/>
<path fill-rule="evenodd" clip-rule="evenodd" d="M59.665 49.1613C59.9211 50.2281 60.0077 51.3466 59.925 52.5161C60.9649 52.5161 62.0049 52.5161 63.0448 52.5161C62.9621 51.3466 63.0487 50.2281 63.3048 49.1613C63.3048 50.3657 63.3048 51.5698 63.3048 52.7742C62.0914 52.7742 60.8784 52.7742 59.665 52.7742C59.665 51.5698 59.665 50.3657 59.665 49.1613Z" fill="white"/>
<path fill-rule="evenodd" clip-rule="evenodd" d="M82.024 49.4194C82.9927 49.336 83.9461 49.4222 84.8838 49.6774C86.7585 54.2305 88.5784 58.7897 90.3434 63.3548C89.3035 63.6988 88.2635 63.6988 87.2236 63.3548C86.785 62.1425 86.3516 60.9381 85.9237 59.7419C83.9305 59.7419 81.9375 59.7419 79.9442 59.7419C79.4435 60.9977 79.0101 62.288 78.6443 63.6129C77.9509 63.6129 77.2578 63.6129 76.5645 63.6129C78.129 58.7814 79.9489 54.0503 82.024 49.4194ZM82.8044 52.5165C83.5784 54.2107 84.3583 55.9313 85.1443 57.6778C83.671 58.0218 82.1979 58.0218 80.7246 57.6778C81.4234 55.9483 82.1168 54.2278 82.8044 52.5165Z" fill="white"/>
<path fill-rule="evenodd" clip-rule="evenodd" d="M123.88 49.4193C124.904 49.3437 125.9 49.4296 126.87 49.6774C128.777 54.2831 130.554 58.9282 132.2 63.6129C131.16 63.6129 130.12 63.6129 129.08 63.6129C128.829 62.3073 128.396 61.0598 127.78 59.8709C125.789 59.7419 123.796 59.6991 121.8 59.7419C121.542 60.984 121.152 62.1883 120.631 63.3548C119.924 63.5984 119.187 63.6843 118.421 63.6129C120.089 58.8144 121.909 54.0831 123.88 49.4193ZM124.66 52.7746C124.985 52.7945 125.202 52.9666 125.31 53.2907C125.874 54.7532 126.437 56.2154 127 57.6778C125.624 57.9346 124.238 58.0205 122.841 57.9359C123.445 56.2182 124.052 54.4977 124.66 52.7746Z" fill="white"/>
<path fill-rule="evenodd" clip-rule="evenodd" d="M101.782 61.548C101.782 62.15 101.782 62.7524 101.782 63.3544C98.4023 63.3544 95.0225 63.3544 91.6428 63.3544C91.6428 62.7524 91.6428 62.15 91.6428 61.548C93.6745 58.2055 95.8412 54.9366 98.1423 51.7415C96.0697 51.484 93.9899 51.398 91.9028 51.4835C91.9028 50.7952 91.9028 50.1072 91.9028 49.4189C95.2825 49.4189 98.6622 49.4189 102.042 49.4189C102.124 50.2117 102.038 50.9859 101.782 51.7415C99.4682 54.8695 97.2149 58.0522 95.0225 61.2899C97.269 61.5475 99.5223 61.6334 101.782 61.548Z" fill="white"/>
<path fill-rule="evenodd" clip-rule="evenodd" d="M116.34 49.4189C116.34 54.0641 116.34 58.7093 116.34 63.3544C115.387 63.3544 114.434 63.3544 113.481 63.3544C113.481 61.2899 113.481 59.2254 113.481 57.1609C111.574 57.1609 109.668 57.1609 107.761 57.1609C107.761 59.3113 107.761 61.462 107.761 63.6125C106.808 63.6125 105.855 63.6125 104.901 63.6125C104.901 58.8814 104.901 54.15 104.901 49.4189C105.855 49.4189 106.808 49.4189 107.761 49.4189C107.761 51.3113 107.761 53.204 107.761 55.0964C109.668 55.0964 111.574 55.0964 113.481 55.0964C113.481 53.204 113.481 51.3113 113.481 49.4189C114.434 49.4189 115.387 49.4189 116.34 49.4189Z" fill="white"/>
<path fill-rule="evenodd" clip-rule="evenodd" d="M183.936 49.4194C185.235 49.4194 186.535 49.4194 187.835 49.4194C188.839 52.5329 189.922 55.6297 191.085 58.7097C192.314 55.7388 193.44 52.728 194.465 49.6774C195.609 49.4279 196.779 49.3419 197.974 49.4194C197.974 54.0645 197.974 58.7097 197.974 63.3548C197.108 63.3548 196.241 63.3548 195.375 63.3548C195.418 59.999 195.375 56.6441 195.245 53.2903C194.083 56.2774 192.999 59.288 191.995 62.3226C191.145 62.5773 190.278 62.6632 189.395 62.5806C188.583 59.6023 187.586 56.6777 186.405 53.8065C186.275 57.0741 186.232 60.343 186.275 63.6129C185.495 63.6129 184.715 63.6129 183.936 63.6129C183.936 58.8818 183.936 54.1505 183.936 49.4194Z" fill="white"/>
<path fill-rule="evenodd" clip-rule="evenodd" d="M241.391 49.4194C242.434 49.3765 243.474 49.4196 244.51 49.5484C245.648 51.4196 246.816 53.2692 248.02 55.0968C249.104 53.2903 250.186 51.4839 251.27 49.6774C252.136 49.3334 253.004 49.3334 253.87 49.6774C252.216 52.224 250.612 54.8046 249.06 57.4194C248.93 59.3959 248.886 61.3745 248.93 63.3548C247.976 63.3548 247.024 63.3548 246.07 63.3548C246.113 61.4604 246.07 59.568 245.94 57.6774C244.357 54.9486 242.84 52.1959 241.391 49.4194Z" fill="white"/>
<path fill-rule="evenodd" clip-rule="evenodd" d="M158.458 49.1618C160.55 49.1042 162.629 49.2332 164.697 49.5488C165.17 50.1827 165.344 50.9138 165.217 51.7424C163.844 51.4879 162.457 51.3158 161.057 51.2263C157.92 51.3303 156.36 52.9648 156.378 56.1295C156.149 59.5127 157.709 61.4051 161.057 61.8069C162.585 61.6642 164.058 61.3202 165.477 60.7747C165.549 61.5354 165.462 62.2665 165.217 62.9682C161.753 64.3943 158.46 64.1362 155.338 62.194C154.244 61.1832 153.594 59.9359 153.388 58.4521C152.317 53.7788 154.006 50.682 158.458 49.1618Z" fill="white"/>
<path fill-rule="evenodd" clip-rule="evenodd" d="M217.473 49.4193C218.497 49.3437 219.493 49.4296 220.463 49.6774C222.244 54.2441 224.021 58.8033 225.793 63.3548C224.767 63.6105 223.727 63.6965 222.673 63.6128C222.345 62.3785 221.912 61.1741 221.373 59.9999C219.387 59.7427 217.394 59.6565 215.393 59.7419C214.965 60.938 214.532 62.1424 214.094 63.3548C213.421 63.6077 212.728 63.6936 212.014 63.6128C213.576 58.787 215.396 54.0559 217.473 49.4193ZM218.253 52.5158C219.109 54.1767 219.889 55.8972 220.593 57.6771C219.217 57.9339 217.831 58.0198 216.434 57.9352C216.918 56.1021 217.524 54.2957 218.253 52.5158Z" fill="white"/>
<path fill-rule="evenodd" clip-rule="evenodd" d="M134.279 49.6777C134.279 54.237 134.279 58.7959 134.279 63.3552C135.146 63.3552 136.013 63.3552 136.879 63.3552C136.795 61.4148 136.881 59.5224 137.139 57.6777C137.139 59.6563 137.139 61.6346 137.139 63.6132C136.099 63.6132 135.059 63.6132 134.019 63.6132C133.934 58.9232 134.02 54.278 134.279 49.6777Z" fill="white"/>
<path fill-rule="evenodd" clip-rule="evenodd" d="M91.643 61.5488C91.643 62.1509 91.643 62.7532 91.643 63.3553C95.0228 63.3553 98.4025 63.3553 101.782 63.3553C101.782 62.7532 101.782 62.1509 101.782 61.5488C102.035 62.1806 102.122 62.8688 102.042 63.6133C98.4891 63.6133 94.9362 63.6133 91.3831 63.6133C91.3035 62.8688 91.3901 62.1806 91.643 61.5488Z" fill="white"/>
</g>
<defs>
<clipPath id="clip0_3_92">
<rect width="254" height="64" fill="white"/>
</clipPath>
</defs>
</svg>
